<mxfile host="app.diagrams.net" modified="2023-10-16T09:42:36.103Z" agent="Mozilla/5.0 (Windows NT 10.0; Win64; x64) AppleWebKit/537.36 (KHTML, like Gecko) Chrome/117.0.0.0 Safari/537.36" etag="8SyW9QW5U8umyEDoihzI" version="22.0.4" type="device">
  <diagram id="R2lEEEUBdFMjLlhIrx00" name="Page-1">
    <mxGraphModel dx="1469" dy="1439" grid="1" gridSize="10" guides="1" tooltips="1" connect="1" arrows="1" fold="1" page="1" pageScale="1" pageWidth="850" pageHeight="1100" math="0" shadow="0" extFonts="Permanent Marker^https://fonts.googleapis.com/css?family=Permanent+Marker">
      <root>
        <mxCell id="0" />
        <mxCell id="1" parent="0" />
        <mxCell id="smYwAhZGvQhZCMyBOZj0-1" value="empleado" style="rounded=0;whiteSpace=wrap;html=1;movable=1;resizable=1;rotatable=1;deletable=1;editable=1;locked=0;connectable=1;fillColor=#fff2cc;strokeColor=#d6b656;" parent="1" vertex="1">
          <mxGeometry x="150" y="100" width="120" height="60" as="geometry" />
        </mxCell>
        <mxCell id="smYwAhZGvQhZCMyBOZj0-4" value="ingrediente" style="rounded=0;whiteSpace=wrap;html=1;strokeColor=default;align=center;verticalAlign=middle;fontFamily=Helvetica;fontSize=12;fontColor=default;fillColor=#66CC00;" parent="1" vertex="1">
          <mxGeometry x="1000" y="570" width="120" height="60" as="geometry" />
        </mxCell>
        <mxCell id="smYwAhZGvQhZCMyBOZj0-5" value="plato" style="rounded=0;whiteSpace=wrap;html=1;strokeColor=#b85450;align=center;verticalAlign=middle;fontFamily=Helvetica;fontSize=12;fillColor=#f8cecc;" parent="1" vertex="1">
          <mxGeometry x="1000" y="330" width="120" height="60" as="geometry" />
        </mxCell>
        <mxCell id="smYwAhZGvQhZCMyBOZj0-6" value="almacen" style="rounded=0;whiteSpace=wrap;html=1;strokeColor=default;align=center;verticalAlign=middle;fontFamily=Helvetica;fontSize=12;fontColor=default;fillColor=#336600;" parent="1" vertex="1">
          <mxGeometry x="1010" y="1070" width="120" height="60" as="geometry" />
        </mxCell>
        <mxCell id="smYwAhZGvQhZCMyBOZj0-8" value="" style="triangle;whiteSpace=wrap;html=1;rounded=0;strokeColor=default;align=center;verticalAlign=middle;fontFamily=Helvetica;fontSize=12;fontColor=default;fillColor=default;rotation=90;" parent="1" vertex="1">
          <mxGeometry x="180" y="210" width="60" height="80" as="geometry" />
        </mxCell>
        <mxCell id="smYwAhZGvQhZCMyBOZj0-9" value="" style="endArrow=none;html=1;rounded=0;fontFamily=Helvetica;fontSize=12;fontColor=default;entryX=0.5;entryY=1;entryDx=0;entryDy=0;exitX=0;exitY=0.5;exitDx=0;exitDy=0;fillColor=#fff2cc;strokeColor=default;" parent="1" source="smYwAhZGvQhZCMyBOZj0-8" target="smYwAhZGvQhZCMyBOZj0-1" edge="1">
          <mxGeometry width="50" height="50" relative="1" as="geometry">
            <mxPoint x="300" y="230" as="sourcePoint" />
            <mxPoint x="350" y="180" as="targetPoint" />
          </mxGeometry>
        </mxCell>
        <mxCell id="smYwAhZGvQhZCMyBOZj0-10" value="" style="endArrow=none;html=1;rounded=0;fontFamily=Helvetica;fontSize=12;fontColor=default;entryX=0.5;entryY=1;entryDx=0;entryDy=0;exitX=0.5;exitY=0;exitDx=0;exitDy=0;" parent="1" source="Kab6qdocHkEqf8yv_JJU-27" target="smYwAhZGvQhZCMyBOZj0-8" edge="1">
          <mxGeometry width="50" height="50" relative="1" as="geometry">
            <mxPoint x="-50" y="330" as="sourcePoint" />
            <mxPoint x="240" y="300" as="targetPoint" />
          </mxGeometry>
        </mxCell>
        <mxCell id="smYwAhZGvQhZCMyBOZj0-11" value="" style="endArrow=none;html=1;rounded=0;fontFamily=Helvetica;fontSize=12;fontColor=default;entryX=0.5;entryY=0;entryDx=0;entryDy=0;exitX=0.5;exitY=0;exitDx=0;exitDy=0;" parent="1" source="Kab6qdocHkEqf8yv_JJU-25" target="smYwAhZGvQhZCMyBOZj0-8" edge="1">
          <mxGeometry width="50" height="50" relative="1" as="geometry">
            <mxPoint x="410" y="330" as="sourcePoint" />
            <mxPoint x="250" y="310" as="targetPoint" />
          </mxGeometry>
        </mxCell>
        <mxCell id="smYwAhZGvQhZCMyBOZj0-14" value="contiene" style="rhombus;whiteSpace=wrap;html=1;rounded=0;strokeColor=default;align=center;verticalAlign=middle;fontFamily=Helvetica;fontSize=12;fontColor=default;fillColor=default;" parent="1" vertex="1">
          <mxGeometry x="1020" y="440" width="80" height="80" as="geometry" />
        </mxCell>
        <mxCell id="smYwAhZGvQhZCMyBOZj0-15" value="organizado en&amp;nbsp;" style="rhombus;whiteSpace=wrap;html=1;rounded=0;strokeColor=default;align=center;verticalAlign=middle;fontFamily=Helvetica;fontSize=12;fontColor=default;fillColor=default;" parent="1" vertex="1">
          <mxGeometry x="1020" y="670" width="80" height="80" as="geometry" />
        </mxCell>
        <mxCell id="smYwAhZGvQhZCMyBOZj0-16" value="ubicado" style="rhombus;whiteSpace=wrap;html=1;rounded=0;strokeColor=default;align=center;verticalAlign=middle;fontFamily=Helvetica;fontSize=12;fontColor=default;fillColor=default;" parent="1" vertex="1">
          <mxGeometry x="1020" y="930" width="80" height="80" as="geometry" />
        </mxCell>
        <mxCell id="smYwAhZGvQhZCMyBOZj0-17" value="" style="endArrow=none;html=1;rounded=0;fontFamily=Helvetica;fontSize=12;fontColor=default;entryX=0.5;entryY=0;entryDx=0;entryDy=0;exitX=0.5;exitY=1;exitDx=0;exitDy=0;" parent="1" source="smYwAhZGvQhZCMyBOZj0-5" target="smYwAhZGvQhZCMyBOZj0-14" edge="1">
          <mxGeometry width="50" height="50" relative="1" as="geometry">
            <mxPoint x="1090" y="640" as="sourcePoint" />
            <mxPoint x="1140" y="590" as="targetPoint" />
          </mxGeometry>
        </mxCell>
        <mxCell id="smYwAhZGvQhZCMyBOZj0-20" value="" style="endArrow=none;html=1;rounded=0;fontFamily=Helvetica;fontSize=12;fontColor=default;exitX=0.5;exitY=0;exitDx=0;exitDy=0;entryX=0.5;entryY=1;entryDx=0;entryDy=0;" parent="1" source="smYwAhZGvQhZCMyBOZj0-4" target="smYwAhZGvQhZCMyBOZj0-14" edge="1">
          <mxGeometry width="50" height="50" relative="1" as="geometry">
            <mxPoint x="1070" y="410" as="sourcePoint" />
            <mxPoint x="1070" y="520" as="targetPoint" />
          </mxGeometry>
        </mxCell>
        <mxCell id="smYwAhZGvQhZCMyBOZj0-21" value="" style="endArrow=none;html=1;rounded=0;fontFamily=Helvetica;fontSize=12;fontColor=default;entryX=0.5;entryY=1;entryDx=0;entryDy=0;" parent="1" source="smYwAhZGvQhZCMyBOZj0-15" target="smYwAhZGvQhZCMyBOZj0-4" edge="1">
          <mxGeometry width="50" height="50" relative="1" as="geometry">
            <mxPoint x="1090" y="870" as="sourcePoint" />
            <mxPoint x="1140" y="820" as="targetPoint" />
          </mxGeometry>
        </mxCell>
        <mxCell id="smYwAhZGvQhZCMyBOZj0-22" value="" style="endArrow=none;html=1;rounded=0;fontFamily=Helvetica;fontSize=12;fontColor=default;entryX=0.5;entryY=1;entryDx=0;entryDy=0;" parent="1" target="smYwAhZGvQhZCMyBOZj0-15" edge="1">
          <mxGeometry width="50" height="50" relative="1" as="geometry">
            <mxPoint x="1060" y="810" as="sourcePoint" />
            <mxPoint x="1090" y="460" as="targetPoint" />
          </mxGeometry>
        </mxCell>
        <mxCell id="smYwAhZGvQhZCMyBOZj0-23" value="" style="endArrow=none;html=1;rounded=0;fontFamily=Helvetica;fontSize=12;fontColor=default;entryX=0.5;entryY=0;entryDx=0;entryDy=0;" parent="1" target="smYwAhZGvQhZCMyBOZj0-16" edge="1">
          <mxGeometry width="50" height="50" relative="1" as="geometry">
            <mxPoint x="1060" y="870" as="sourcePoint" />
            <mxPoint x="1140" y="780" as="targetPoint" />
          </mxGeometry>
        </mxCell>
        <mxCell id="smYwAhZGvQhZCMyBOZj0-24" value="" style="endArrow=none;html=1;rounded=0;fontFamily=Helvetica;fontSize=12;fontColor=default;entryX=0.412;entryY=0.007;entryDx=0;entryDy=0;entryPerimeter=0;" parent="1" source="smYwAhZGvQhZCMyBOZj0-16" target="smYwAhZGvQhZCMyBOZj0-6" edge="1">
          <mxGeometry width="50" height="50" relative="1" as="geometry">
            <mxPoint x="1090" y="940" as="sourcePoint" />
            <mxPoint x="1060" y="1060" as="targetPoint" />
          </mxGeometry>
        </mxCell>
        <mxCell id="smYwAhZGvQhZCMyBOZj0-25" value="hace" style="rhombus;whiteSpace=wrap;html=1;rounded=0;strokeColor=default;align=center;verticalAlign=middle;fontFamily=Helvetica;fontSize=12;fontColor=default;fillColor=default;" parent="1" vertex="1">
          <mxGeometry x="680" y="320" width="80" height="80" as="geometry" />
        </mxCell>
        <mxCell id="smYwAhZGvQhZCMyBOZj0-26" value="" style="endArrow=none;html=1;rounded=0;fontFamily=Helvetica;fontSize=12;fontColor=default;entryX=0;entryY=0.5;entryDx=0;entryDy=0;exitX=1;exitY=0.5;exitDx=0;exitDy=0;" parent="1" source="Kab6qdocHkEqf8yv_JJU-25" target="smYwAhZGvQhZCMyBOZj0-25" edge="1">
          <mxGeometry width="50" height="50" relative="1" as="geometry">
            <mxPoint x="320" y="190" as="sourcePoint" />
            <mxPoint x="370" y="140" as="targetPoint" />
          </mxGeometry>
        </mxCell>
        <mxCell id="smYwAhZGvQhZCMyBOZj0-27" value="" style="endArrow=none;html=1;rounded=0;fontFamily=Helvetica;fontSize=12;fontColor=default;entryX=1;entryY=0.5;entryDx=0;entryDy=0;exitX=0;exitY=0.5;exitDx=0;exitDy=0;" parent="1" source="smYwAhZGvQhZCMyBOZj0-5" target="smYwAhZGvQhZCMyBOZj0-25" edge="1">
          <mxGeometry width="50" height="50" relative="1" as="geometry">
            <mxPoint x="740" y="370" as="sourcePoint" />
            <mxPoint x="850" y="370" as="targetPoint" />
          </mxGeometry>
        </mxCell>
        <mxCell id="smYwAhZGvQhZCMyBOZj0-28" value="anyos_servicio" style="ellipse;whiteSpace=wrap;html=1;rounded=0;strokeColor=default;align=center;verticalAlign=middle;fontFamily=Helvetica;fontSize=12;fontColor=default;fillColor=#FF66FF;" parent="1" vertex="1">
          <mxGeometry x="340" y="440" width="120" height="40" as="geometry" />
        </mxCell>
        <mxCell id="smYwAhZGvQhZCMyBOZj0-29" value="telefono_fijo" style="ellipse;whiteSpace=wrap;html=1;rounded=0;strokeColor=#d6b656;align=center;verticalAlign=middle;fontFamily=Helvetica;fontSize=12;fillColor=#fff2cc;" parent="1" vertex="1">
          <mxGeometry x="90" y="-110" width="120" height="40" as="geometry" />
        </mxCell>
        <mxCell id="smYwAhZGvQhZCMyBOZj0-30" value="numero_ss" style="ellipse;whiteSpace=wrap;html=1;rounded=0;strokeColor=#d6b656;align=center;verticalAlign=middle;fontFamily=Helvetica;fontSize=12;fillColor=#fff2cc;" parent="1" vertex="1">
          <mxGeometry x="-20" y="-80" width="120" height="40" as="geometry" />
        </mxCell>
        <mxCell id="smYwAhZGvQhZCMyBOZj0-31" value="telefono_movil" style="ellipse;whiteSpace=wrap;html=1;rounded=0;strokeColor=#d6b656;align=center;verticalAlign=middle;fontFamily=Helvetica;fontSize=12;fillColor=#fff2cc;" parent="1" vertex="1">
          <mxGeometry x="210" y="-70" width="120" height="40" as="geometry" />
        </mxCell>
        <mxCell id="smYwAhZGvQhZCMyBOZj0-32" value="&lt;b&gt;&lt;u&gt;dni&lt;/u&gt;&lt;/b&gt;" style="ellipse;whiteSpace=wrap;html=1;rounded=0;strokeColor=#d6b656;align=center;verticalAlign=middle;fontFamily=Helvetica;fontSize=12;fillColor=#fff2cc;" parent="1" vertex="1">
          <mxGeometry x="-100" y="-30" width="120" height="40" as="geometry" />
        </mxCell>
        <mxCell id="smYwAhZGvQhZCMyBOZj0-33" value="nombre" style="ellipse;whiteSpace=wrap;html=1;rounded=0;strokeColor=#d6b656;align=center;verticalAlign=middle;fontFamily=Helvetica;fontSize=12;fillColor=#fff2cc;" parent="1" vertex="1">
          <mxGeometry x="-260" y="40" width="120" height="40" as="geometry" />
        </mxCell>
        <mxCell id="smYwAhZGvQhZCMyBOZj0-34" value="nombre_completo" style="ellipse;whiteSpace=wrap;html=1;rounded=0;strokeColor=#d6b656;align=center;verticalAlign=middle;fontFamily=Helvetica;fontSize=12;fillColor=#fff2cc;" parent="1" vertex="1">
          <mxGeometry x="-60" y="100" width="120" height="40" as="geometry" />
        </mxCell>
        <mxCell id="smYwAhZGvQhZCMyBOZj0-35" value="&lt;b&gt;&lt;u&gt;id_cocinero&lt;/u&gt;&lt;/b&gt;" style="ellipse;whiteSpace=wrap;html=1;rounded=0;strokeColor=default;align=center;verticalAlign=middle;fontFamily=Helvetica;fontSize=12;fontColor=default;fillColor=#FF66FF;" parent="1" vertex="1">
          <mxGeometry x="490" y="430" width="120" height="40" as="geometry" />
        </mxCell>
        <mxCell id="smYwAhZGvQhZCMyBOZj0-37" value="&lt;b&gt;&lt;u&gt;id_pinche&lt;/u&gt;&lt;/b&gt;" style="ellipse;whiteSpace=wrap;html=1;rounded=0;strokeColor=#9673a6;align=center;verticalAlign=middle;fontFamily=Helvetica;fontSize=12;fillColor=#e1d5e7;" parent="1" vertex="1">
          <mxGeometry x="-50" y="440" width="120" height="40" as="geometry" />
        </mxCell>
        <mxCell id="smYwAhZGvQhZCMyBOZj0-38" value="persona" style="ellipse;whiteSpace=wrap;html=1;rounded=0;strokeColor=#b85450;align=center;verticalAlign=middle;fontFamily=Helvetica;fontSize=12;fillColor=#f8cecc;" parent="1" vertex="1">
          <mxGeometry x="1220" y="250" width="120" height="40" as="geometry" />
        </mxCell>
        <mxCell id="smYwAhZGvQhZCMyBOZj0-40" value="" style="endArrow=none;html=1;rounded=0;fontFamily=Helvetica;fontSize=12;fontColor=default;exitX=0;exitY=0;exitDx=0;exitDy=0;entryX=1;entryY=0.5;entryDx=0;entryDy=0;fillColor=#fff2cc;strokeColor=default;" parent="1" source="smYwAhZGvQhZCMyBOZj0-1" target="smYwAhZGvQhZCMyBOZj0-34" edge="1">
          <mxGeometry width="50" height="50" relative="1" as="geometry">
            <mxPoint x="110" y="80" as="sourcePoint" />
            <mxPoint x="160" y="30" as="targetPoint" />
          </mxGeometry>
        </mxCell>
        <mxCell id="smYwAhZGvQhZCMyBOZj0-41" value="" style="endArrow=none;html=1;rounded=0;fontFamily=Helvetica;fontSize=12;fontColor=default;exitX=0;exitY=0.5;exitDx=0;exitDy=0;entryX=1;entryY=0.5;entryDx=0;entryDy=0;fillColor=#fff2cc;strokeColor=default;" parent="1" source="smYwAhZGvQhZCMyBOZj0-34" target="smYwAhZGvQhZCMyBOZj0-33" edge="1">
          <mxGeometry width="50" height="50" relative="1" as="geometry">
            <mxPoint x="-10" y="100" as="sourcePoint" />
            <mxPoint x="-90" y="130" as="targetPoint" />
          </mxGeometry>
        </mxCell>
        <mxCell id="smYwAhZGvQhZCMyBOZj0-42" value="" style="endArrow=none;html=1;rounded=0;fontFamily=Helvetica;fontSize=12;fontColor=default;exitX=0.5;exitY=0;exitDx=0;exitDy=0;entryX=1;entryY=0.5;entryDx=0;entryDy=0;fillColor=#fff2cc;strokeColor=default;" parent="1" source="smYwAhZGvQhZCMyBOZj0-1" target="smYwAhZGvQhZCMyBOZj0-32" edge="1">
          <mxGeometry width="50" height="50" relative="1" as="geometry">
            <mxPoint x="170" y="135" as="sourcePoint" />
            <mxPoint x="80" y="140" as="targetPoint" />
          </mxGeometry>
        </mxCell>
        <mxCell id="smYwAhZGvQhZCMyBOZj0-43" value="" style="endArrow=none;html=1;rounded=0;fontFamily=Helvetica;fontSize=12;fontColor=default;entryX=1;entryY=1;entryDx=0;entryDy=0;fillColor=#fff2cc;strokeColor=default;exitX=0.5;exitY=0;exitDx=0;exitDy=0;" parent="1" target="smYwAhZGvQhZCMyBOZj0-30" edge="1" source="smYwAhZGvQhZCMyBOZj0-1">
          <mxGeometry width="50" height="50" relative="1" as="geometry">
            <mxPoint x="210" y="100" as="sourcePoint" />
            <mxPoint x="30" as="targetPoint" />
          </mxGeometry>
        </mxCell>
        <mxCell id="smYwAhZGvQhZCMyBOZj0-44" value="" style="endArrow=none;html=1;rounded=0;fontFamily=Helvetica;fontSize=12;fontColor=default;entryX=0.5;entryY=1;entryDx=0;entryDy=0;exitX=1;exitY=0;exitDx=0;exitDy=0;fillColor=#fff2cc;strokeColor=default;" parent="1" source="smYwAhZGvQhZCMyBOZj0-1" target="smYwAhZGvQhZCMyBOZj0-29" edge="1">
          <mxGeometry width="50" height="50" relative="1" as="geometry">
            <mxPoint x="220" y="110" as="sourcePoint" />
            <mxPoint x="92" y="-36" as="targetPoint" />
          </mxGeometry>
        </mxCell>
        <mxCell id="smYwAhZGvQhZCMyBOZj0-45" value="" style="endArrow=none;html=1;rounded=0;fontFamily=Helvetica;fontSize=12;fontColor=default;entryX=0.5;entryY=1;entryDx=0;entryDy=0;exitX=1;exitY=0;exitDx=0;exitDy=0;fillColor=#fff2cc;strokeColor=default;" parent="1" source="smYwAhZGvQhZCMyBOZj0-1" target="smYwAhZGvQhZCMyBOZj0-31" edge="1">
          <mxGeometry width="50" height="50" relative="1" as="geometry">
            <mxPoint x="280" y="110" as="sourcePoint" />
            <mxPoint x="160" y="-60" as="targetPoint" />
          </mxGeometry>
        </mxCell>
        <mxCell id="smYwAhZGvQhZCMyBOZj0-46" value="" style="endArrow=none;html=1;rounded=0;fontFamily=Helvetica;fontSize=12;fontColor=default;exitX=0.5;exitY=0;exitDx=0;exitDy=0;entryX=0.5;entryY=1;entryDx=0;entryDy=0;" parent="1" source="Kab6qdocHkEqf8yv_JJU-26" target="Kab6qdocHkEqf8yv_JJU-27" edge="1">
          <mxGeometry width="50" height="50" relative="1" as="geometry">
            <mxPoint x="-50" y="310" as="sourcePoint" />
            <mxPoint x="-110" y="390" as="targetPoint" />
          </mxGeometry>
        </mxCell>
        <mxCell id="smYwAhZGvQhZCMyBOZj0-47" value="" style="endArrow=none;html=1;rounded=0;fontFamily=Helvetica;fontSize=12;fontColor=default;entryX=0.5;entryY=1;entryDx=0;entryDy=0;exitX=0.5;exitY=0;exitDx=0;exitDy=0;" parent="1" source="smYwAhZGvQhZCMyBOZj0-37" target="Kab6qdocHkEqf8yv_JJU-27" edge="1">
          <mxGeometry width="50" height="50" relative="1" as="geometry">
            <mxPoint x="80" y="450" as="sourcePoint" />
            <mxPoint x="-50" y="390" as="targetPoint" />
          </mxGeometry>
        </mxCell>
        <mxCell id="smYwAhZGvQhZCMyBOZj0-48" value="" style="endArrow=none;html=1;rounded=0;fontFamily=Helvetica;fontSize=12;fontColor=default;entryX=0.5;entryY=1;entryDx=0;entryDy=0;exitX=0.5;exitY=0;exitDx=0;exitDy=0;" parent="1" source="smYwAhZGvQhZCMyBOZj0-28" edge="1">
          <mxGeometry width="50" height="50" relative="1" as="geometry">
            <mxPoint x="400" y="460" as="sourcePoint" />
            <mxPoint x="410" y="390" as="targetPoint" />
          </mxGeometry>
        </mxCell>
        <mxCell id="smYwAhZGvQhZCMyBOZj0-49" value="" style="endArrow=none;html=1;rounded=0;fontFamily=Helvetica;fontSize=12;fontColor=default;entryX=0.5;entryY=1;entryDx=0;entryDy=0;exitX=0.5;exitY=0;exitDx=0;exitDy=0;" parent="1" source="smYwAhZGvQhZCMyBOZj0-35" edge="1">
          <mxGeometry width="50" height="50" relative="1" as="geometry">
            <mxPoint x="410" y="470" as="sourcePoint" />
            <mxPoint x="410" y="390" as="targetPoint" />
          </mxGeometry>
        </mxCell>
        <mxCell id="smYwAhZGvQhZCMyBOZj0-50" value="ingredientes" style="ellipse;whiteSpace=wrap;html=1;rounded=0;strokeColor=#b85450;align=center;verticalAlign=middle;fontFamily=Helvetica;fontSize=12;fillColor=#f8cecc;" parent="1" vertex="1">
          <mxGeometry x="1170" y="200" width="120" height="40" as="geometry" />
        </mxCell>
        <mxCell id="smYwAhZGvQhZCMyBOZj0-51" value="tipo_plato" style="ellipse;whiteSpace=wrap;html=1;rounded=0;strokeColor=#b85450;align=center;verticalAlign=middle;fontFamily=Helvetica;fontSize=12;fillColor=#f8cecc;" parent="1" vertex="1">
          <mxGeometry x="1230" y="325" width="120" height="40" as="geometry" />
        </mxCell>
        <mxCell id="smYwAhZGvQhZCMyBOZj0-52" value="precio" style="ellipse;whiteSpace=wrap;html=1;rounded=0;strokeColor=#b85450;align=center;verticalAlign=middle;fontFamily=Helvetica;fontSize=12;fillColor=#f8cecc;" parent="1" vertex="1">
          <mxGeometry x="1020" y="180" width="120" height="40" as="geometry" />
        </mxCell>
        <mxCell id="smYwAhZGvQhZCMyBOZj0-53" value="nombre" style="ellipse;whiteSpace=wrap;html=1;rounded=0;strokeColor=#b85450;align=center;verticalAlign=middle;fontFamily=Helvetica;fontSize=12;fillColor=#f8cecc;" parent="1" vertex="1">
          <mxGeometry x="900" y="200" width="120" height="40" as="geometry" />
        </mxCell>
        <mxCell id="smYwAhZGvQhZCMyBOZj0-54" value="cantidad" style="ellipse;whiteSpace=wrap;html=1;rounded=0;strokeColor=default;align=center;verticalAlign=middle;fontFamily=Helvetica;fontSize=12;fontColor=default;fillColor=#66CC00;" parent="1" vertex="1">
          <mxGeometry x="1180" y="540" width="120" height="40" as="geometry" />
        </mxCell>
        <mxCell id="smYwAhZGvQhZCMyBOZj0-55" value="&lt;b&gt;&lt;u&gt;id_ingrdiente&lt;/u&gt;&lt;/b&gt;" style="ellipse;whiteSpace=wrap;html=1;rounded=0;strokeColor=default;align=center;verticalAlign=middle;fontFamily=Helvetica;fontSize=12;fontColor=default;fillColor=#66CC00;" parent="1" vertex="1">
          <mxGeometry x="1180" y="590" width="120" height="40" as="geometry" />
        </mxCell>
        <mxCell id="smYwAhZGvQhZCMyBOZj0-58" value="nombre" style="ellipse;whiteSpace=wrap;html=1;rounded=0;strokeColor=default;align=center;verticalAlign=middle;fontFamily=Helvetica;fontSize=12;fontColor=default;fillColor=#336600;" parent="1" vertex="1">
          <mxGeometry x="1190" y="1040" width="120" height="40" as="geometry" />
        </mxCell>
        <mxCell id="smYwAhZGvQhZCMyBOZj0-59" value="&lt;u&gt;&lt;b&gt;num_almacen&lt;/b&gt;&lt;/u&gt;" style="ellipse;whiteSpace=wrap;html=1;rounded=0;strokeColor=default;align=center;verticalAlign=middle;fontFamily=Helvetica;fontSize=12;fontColor=default;fillColor=#336600;" parent="1" vertex="1">
          <mxGeometry x="1190" y="1090" width="120" height="40" as="geometry" />
        </mxCell>
        <mxCell id="smYwAhZGvQhZCMyBOZj0-60" value="descripcion" style="ellipse;whiteSpace=wrap;html=1;rounded=0;strokeColor=default;align=center;verticalAlign=middle;fontFamily=Helvetica;fontSize=12;fontColor=default;fillColor=#336600;" parent="1" vertex="1">
          <mxGeometry x="1190" y="1140" width="120" height="40" as="geometry" />
        </mxCell>
        <mxCell id="smYwAhZGvQhZCMyBOZj0-61" value="letra" style="ellipse;whiteSpace=wrap;html=1;rounded=0;strokeColor=default;align=center;verticalAlign=middle;fontFamily=Helvetica;fontSize=12;fontColor=default;fillColor=#CC0000;" parent="1" vertex="1">
          <mxGeometry x="1210" y="790" width="120" height="40" as="geometry" />
        </mxCell>
        <mxCell id="smYwAhZGvQhZCMyBOZj0-62" value="tamaño" style="ellipse;whiteSpace=wrap;html=1;rounded=0;strokeColor=default;align=center;verticalAlign=middle;fontFamily=Helvetica;fontSize=12;fontColor=default;fillColor=#CC0000;" parent="1" vertex="1">
          <mxGeometry x="1210" y="830" width="120" height="40" as="geometry" />
        </mxCell>
        <mxCell id="smYwAhZGvQhZCMyBOZj0-64" value="" style="endArrow=none;html=1;rounded=0;fontFamily=Helvetica;fontSize=12;fontColor=default;exitX=0;exitY=0;exitDx=0;exitDy=0;entryX=0.5;entryY=1;entryDx=0;entryDy=0;" parent="1" source="smYwAhZGvQhZCMyBOZj0-5" target="smYwAhZGvQhZCMyBOZj0-53" edge="1">
          <mxGeometry width="50" height="50" relative="1" as="geometry">
            <mxPoint x="940" y="330" as="sourcePoint" />
            <mxPoint x="990" y="280" as="targetPoint" />
          </mxGeometry>
        </mxCell>
        <mxCell id="smYwAhZGvQhZCMyBOZj0-65" value="" style="endArrow=none;html=1;rounded=0;fontFamily=Helvetica;fontSize=12;fontColor=default;exitX=0.5;exitY=0;exitDx=0;exitDy=0;entryX=0.5;entryY=1;entryDx=0;entryDy=0;" parent="1" source="smYwAhZGvQhZCMyBOZj0-5" target="smYwAhZGvQhZCMyBOZj0-52" edge="1">
          <mxGeometry width="50" height="50" relative="1" as="geometry">
            <mxPoint x="1010" y="340" as="sourcePoint" />
            <mxPoint x="955" y="270" as="targetPoint" />
          </mxGeometry>
        </mxCell>
        <mxCell id="smYwAhZGvQhZCMyBOZj0-66" value="" style="endArrow=none;html=1;rounded=0;fontFamily=Helvetica;fontSize=12;fontColor=default;exitX=0.5;exitY=0;exitDx=0;exitDy=0;entryX=0;entryY=1;entryDx=0;entryDy=0;" parent="1" source="smYwAhZGvQhZCMyBOZj0-5" target="smYwAhZGvQhZCMyBOZj0-50" edge="1">
          <mxGeometry width="50" height="50" relative="1" as="geometry">
            <mxPoint x="1070" y="340" as="sourcePoint" />
            <mxPoint x="1090" y="230" as="targetPoint" />
          </mxGeometry>
        </mxCell>
        <mxCell id="smYwAhZGvQhZCMyBOZj0-67" value="" style="endArrow=none;html=1;rounded=0;fontFamily=Helvetica;fontSize=12;fontColor=default;exitX=1;exitY=0;exitDx=0;exitDy=0;entryX=0;entryY=0.5;entryDx=0;entryDy=0;" parent="1" source="smYwAhZGvQhZCMyBOZj0-5" target="smYwAhZGvQhZCMyBOZj0-38" edge="1">
          <mxGeometry width="50" height="50" relative="1" as="geometry">
            <mxPoint x="1070" y="340" as="sourcePoint" />
            <mxPoint x="1198" y="244" as="targetPoint" />
          </mxGeometry>
        </mxCell>
        <mxCell id="smYwAhZGvQhZCMyBOZj0-68" value="" style="endArrow=none;html=1;rounded=0;fontFamily=Helvetica;fontSize=12;fontColor=default;exitX=1;exitY=0;exitDx=0;exitDy=0;entryX=0;entryY=0.5;entryDx=0;entryDy=0;" parent="1" source="smYwAhZGvQhZCMyBOZj0-5" target="smYwAhZGvQhZCMyBOZj0-51" edge="1">
          <mxGeometry width="50" height="50" relative="1" as="geometry">
            <mxPoint x="1130" y="340" as="sourcePoint" />
            <mxPoint x="1230" y="330" as="targetPoint" />
          </mxGeometry>
        </mxCell>
        <mxCell id="smYwAhZGvQhZCMyBOZj0-69" value="" style="endArrow=none;html=1;rounded=0;fontFamily=Helvetica;fontSize=12;fontColor=default;exitX=1;exitY=0.5;exitDx=0;exitDy=0;entryX=0;entryY=0.5;entryDx=0;entryDy=0;" parent="1" source="smYwAhZGvQhZCMyBOZj0-4" target="smYwAhZGvQhZCMyBOZj0-54" edge="1">
          <mxGeometry width="50" height="50" relative="1" as="geometry">
            <mxPoint x="1120" y="519.17" as="sourcePoint" />
            <mxPoint x="1230" y="519.17" as="targetPoint" />
          </mxGeometry>
        </mxCell>
        <mxCell id="smYwAhZGvQhZCMyBOZj0-70" value="" style="endArrow=none;html=1;rounded=0;fontFamily=Helvetica;fontSize=12;fontColor=default;exitX=1;exitY=0.5;exitDx=0;exitDy=0;entryX=0;entryY=0.5;entryDx=0;entryDy=0;" parent="1" source="smYwAhZGvQhZCMyBOZj0-4" target="smYwAhZGvQhZCMyBOZj0-55" edge="1">
          <mxGeometry width="50" height="50" relative="1" as="geometry">
            <mxPoint x="1130" y="610" as="sourcePoint" />
            <mxPoint x="1190" y="570" as="targetPoint" />
          </mxGeometry>
        </mxCell>
        <mxCell id="smYwAhZGvQhZCMyBOZj0-72" value="" style="endArrow=none;html=1;rounded=0;fontFamily=Helvetica;fontSize=12;fontColor=default;exitX=1;exitY=0.5;exitDx=0;exitDy=0;entryX=0;entryY=0.5;entryDx=0;entryDy=0;" parent="1" source="smYwAhZGvQhZCMyBOZj0-6" target="smYwAhZGvQhZCMyBOZj0-58" edge="1">
          <mxGeometry width="50" height="50" relative="1" as="geometry">
            <mxPoint x="1140" y="870" as="sourcePoint" />
            <mxPoint x="1200" y="930" as="targetPoint" />
          </mxGeometry>
        </mxCell>
        <mxCell id="smYwAhZGvQhZCMyBOZj0-73" value="" style="endArrow=none;html=1;rounded=0;fontFamily=Helvetica;fontSize=12;fontColor=default;exitX=1;exitY=0.5;exitDx=0;exitDy=0;entryX=0;entryY=0.5;entryDx=0;entryDy=0;" parent="1" source="smYwAhZGvQhZCMyBOZj0-6" target="smYwAhZGvQhZCMyBOZj0-59" edge="1">
          <mxGeometry width="50" height="50" relative="1" as="geometry">
            <mxPoint x="1140" y="1110" as="sourcePoint" />
            <mxPoint x="1200" y="1070" as="targetPoint" />
          </mxGeometry>
        </mxCell>
        <mxCell id="smYwAhZGvQhZCMyBOZj0-74" value="" style="endArrow=none;html=1;rounded=0;fontFamily=Helvetica;fontSize=12;fontColor=default;exitX=1;exitY=0.5;exitDx=0;exitDy=0;entryX=0;entryY=0.5;entryDx=0;entryDy=0;" parent="1" source="smYwAhZGvQhZCMyBOZj0-6" target="smYwAhZGvQhZCMyBOZj0-60" edge="1">
          <mxGeometry width="50" height="50" relative="1" as="geometry">
            <mxPoint x="1140" y="1110" as="sourcePoint" />
            <mxPoint x="1200" y="1120" as="targetPoint" />
          </mxGeometry>
        </mxCell>
        <mxCell id="smYwAhZGvQhZCMyBOZj0-75" value="" style="endArrow=none;html=1;rounded=0;fontFamily=Helvetica;fontSize=12;fontColor=default;exitX=1;exitY=0.5;exitDx=0;exitDy=0;entryX=0;entryY=0.5;entryDx=0;entryDy=0;" parent="1" source="Kab6qdocHkEqf8yv_JJU-30" target="smYwAhZGvQhZCMyBOZj0-61" edge="1">
          <mxGeometry width="50" height="50" relative="1" as="geometry">
            <mxPoint x="1150" y="830" as="sourcePoint" />
            <mxPoint x="1220" y="640" as="targetPoint" />
          </mxGeometry>
        </mxCell>
        <mxCell id="smYwAhZGvQhZCMyBOZj0-79" value="apellido_1" style="ellipse;whiteSpace=wrap;html=1;rounded=0;strokeColor=#d6b656;align=center;verticalAlign=middle;fontFamily=Helvetica;fontSize=12;fillColor=#fff2cc;" parent="1" vertex="1">
          <mxGeometry x="-250" y="110" width="120" height="40" as="geometry" />
        </mxCell>
        <mxCell id="smYwAhZGvQhZCMyBOZj0-80" value="apellido_2" style="ellipse;whiteSpace=wrap;html=1;rounded=0;strokeColor=#d6b656;align=center;verticalAlign=middle;fontFamily=Helvetica;fontSize=12;fillColor=#fff2cc;" parent="1" vertex="1">
          <mxGeometry x="-230" y="170" width="120" height="40" as="geometry" />
        </mxCell>
        <mxCell id="smYwAhZGvQhZCMyBOZj0-81" value="" style="endArrow=none;html=1;rounded=0;fontFamily=Helvetica;fontSize=12;fontColor=default;entryX=1;entryY=0.5;entryDx=0;entryDy=0;fillColor=#fff2cc;strokeColor=default;" parent="1" target="smYwAhZGvQhZCMyBOZj0-79" edge="1">
          <mxGeometry width="50" height="50" relative="1" as="geometry">
            <mxPoint x="-60" y="120" as="sourcePoint" />
            <mxPoint x="-130" y="70" as="targetPoint" />
          </mxGeometry>
        </mxCell>
        <mxCell id="smYwAhZGvQhZCMyBOZj0-82" value="" style="endArrow=none;html=1;rounded=0;fontFamily=Helvetica;fontSize=12;fontColor=default;entryX=1;entryY=0.5;entryDx=0;entryDy=0;exitX=0;exitY=0.5;exitDx=0;exitDy=0;fillColor=#fff2cc;strokeColor=default;" parent="1" source="smYwAhZGvQhZCMyBOZj0-34" target="smYwAhZGvQhZCMyBOZj0-80" edge="1">
          <mxGeometry width="50" height="50" relative="1" as="geometry">
            <mxPoint x="-50" y="130" as="sourcePoint" />
            <mxPoint x="-120" y="140" as="targetPoint" />
          </mxGeometry>
        </mxCell>
        <mxCell id="smYwAhZGvQhZCMyBOZj0-83" value="&lt;b&gt;&lt;u&gt;id_plato&lt;/u&gt;&lt;/b&gt;" style="ellipse;whiteSpace=wrap;html=1;rounded=0;strokeColor=#b85450;align=center;verticalAlign=middle;fontFamily=Helvetica;fontSize=12;fillColor=#f8cecc;" parent="1" vertex="1">
          <mxGeometry x="840" y="250" width="120" height="40" as="geometry" />
        </mxCell>
        <mxCell id="smYwAhZGvQhZCMyBOZj0-84" value="" style="endArrow=none;html=1;rounded=0;fontFamily=Helvetica;fontSize=12;fontColor=default;exitX=0;exitY=0;exitDx=0;exitDy=0;entryX=0.5;entryY=1;entryDx=0;entryDy=0;" parent="1" source="smYwAhZGvQhZCMyBOZj0-5" target="smYwAhZGvQhZCMyBOZj0-83" edge="1">
          <mxGeometry width="50" height="50" relative="1" as="geometry">
            <mxPoint x="940" y="380" as="sourcePoint" />
            <mxPoint x="930" y="330" as="targetPoint" />
          </mxGeometry>
        </mxCell>
        <mxCell id="smYwAhZGvQhZCMyBOZj0-86" value="" style="endArrow=none;html=1;rounded=0;fontFamily=Helvetica;fontSize=12;fontColor=default;entryX=1;entryY=0.5;entryDx=0;entryDy=0;exitX=0;exitY=0.5;exitDx=0;exitDy=0;" parent="1" source="smYwAhZGvQhZCMyBOZj0-62" target="Kab6qdocHkEqf8yv_JJU-30" edge="1">
          <mxGeometry width="50" height="50" relative="1" as="geometry">
            <mxPoint x="1020" y="940" as="sourcePoint" />
            <mxPoint x="1090" y="860" as="targetPoint" />
          </mxGeometry>
        </mxCell>
        <mxCell id="smYwAhZGvQhZCMyBOZj0-87" value="" style="endArrow=none;html=1;rounded=0;fontFamily=Helvetica;fontSize=12;fontColor=default;entryX=1;entryY=0.5;entryDx=0;entryDy=0;exitX=0;exitY=0.5;exitDx=0;exitDy=0;" parent="1" source="smYwAhZGvQhZCMyBOZj0-88" target="Kab6qdocHkEqf8yv_JJU-30" edge="1">
          <mxGeometry width="50" height="50" relative="1" as="geometry">
            <mxPoint x="1010" y="880" as="sourcePoint" />
            <mxPoint x="1030" y="860" as="targetPoint" />
          </mxGeometry>
        </mxCell>
        <mxCell id="smYwAhZGvQhZCMyBOZj0-88" value="&lt;b&gt;&lt;u&gt;id_estante&lt;/u&gt;&lt;/b&gt;" style="ellipse;whiteSpace=wrap;html=1;rounded=0;strokeColor=default;align=center;verticalAlign=middle;fontFamily=Helvetica;fontSize=12;fontColor=default;fillColor=#CC0000;" parent="1" vertex="1">
          <mxGeometry x="1220" y="880" width="120" height="40" as="geometry" />
        </mxCell>
        <mxCell id="smYwAhZGvQhZCMyBOZj0-89" style="edgeStyle=orthogonalEdgeStyle;rounded=0;orthogonalLoop=1;jettySize=auto;html=1;exitX=0.5;exitY=1;exitDx=0;exitDy=0;fontFamily=Helvetica;fontSize=12;fontColor=default;" parent="1" edge="1">
          <mxGeometry relative="1" as="geometry">
            <mxPoint x="1080" y="1090" as="sourcePoint" />
            <mxPoint x="1080" y="1090" as="targetPoint" />
          </mxGeometry>
        </mxCell>
        <mxCell id="smYwAhZGvQhZCMyBOZj0-90" value="(1,N)" style="text;html=1;align=center;verticalAlign=middle;resizable=0;points=[];autosize=1;strokeColor=none;fillColor=none;fontSize=12;fontFamily=Helvetica;fontColor=default;" parent="1" vertex="1">
          <mxGeometry x="210" y="175" width="50" height="30" as="geometry" />
        </mxCell>
        <mxCell id="smYwAhZGvQhZCMyBOZj0-91" value="(0,N)" style="text;html=1;align=center;verticalAlign=middle;resizable=0;points=[];autosize=1;strokeColor=none;fillColor=none;fontSize=12;fontFamily=Helvetica;fontColor=default;" parent="1" vertex="1">
          <mxGeometry x="-85" y="278" width="50" height="30" as="geometry" />
        </mxCell>
        <mxCell id="smYwAhZGvQhZCMyBOZj0-92" value="(0,N)" style="text;html=1;align=center;verticalAlign=middle;resizable=0;points=[];autosize=1;strokeColor=none;fillColor=none;fontSize=12;fontFamily=Helvetica;fontColor=default;" parent="1" vertex="1">
          <mxGeometry x="385" y="278" width="50" height="30" as="geometry" />
        </mxCell>
        <mxCell id="smYwAhZGvQhZCMyBOZj0-93" value="(0,N)" style="text;html=1;align=center;verticalAlign=middle;resizable=0;points=[];autosize=1;strokeColor=none;fillColor=none;fontSize=12;fontFamily=Helvetica;fontColor=default;" parent="1" vertex="1">
          <mxGeometry x="830" y="330" width="50" height="30" as="geometry" />
        </mxCell>
        <mxCell id="smYwAhZGvQhZCMyBOZj0-94" value="(1,N)" style="text;html=1;align=center;verticalAlign=middle;resizable=0;points=[];autosize=1;strokeColor=none;fillColor=none;fontSize=12;fontFamily=Helvetica;fontColor=default;" parent="1" vertex="1">
          <mxGeometry x="570" y="330" width="50" height="30" as="geometry" />
        </mxCell>
        <mxCell id="smYwAhZGvQhZCMyBOZj0-95" value="(1,N)" style="text;html=1;align=center;verticalAlign=middle;resizable=0;points=[];autosize=1;strokeColor=none;fillColor=none;fontSize=12;fontFamily=Helvetica;fontColor=default;" parent="1" vertex="1">
          <mxGeometry x="1060" y="530" width="50" height="30" as="geometry" />
        </mxCell>
        <mxCell id="smYwAhZGvQhZCMyBOZj0-96" value="(1,N)" style="text;html=1;align=center;verticalAlign=middle;resizable=0;points=[];autosize=1;strokeColor=none;fillColor=none;fontSize=12;fontFamily=Helvetica;fontColor=default;" parent="1" vertex="1">
          <mxGeometry x="1060" y="400" width="50" height="30" as="geometry" />
        </mxCell>
        <mxCell id="smYwAhZGvQhZCMyBOZj0-97" value="(1,N)" style="text;html=1;align=center;verticalAlign=middle;resizable=0;points=[];autosize=1;strokeColor=none;fillColor=none;fontSize=12;fontFamily=Helvetica;fontColor=default;" parent="1" vertex="1">
          <mxGeometry x="1060" y="760" width="50" height="30" as="geometry" />
        </mxCell>
        <mxCell id="smYwAhZGvQhZCMyBOZj0-98" value="(0,N)" style="text;html=1;align=center;verticalAlign=middle;resizable=0;points=[];autosize=1;strokeColor=none;fillColor=none;fontSize=12;fontFamily=Helvetica;fontColor=default;" parent="1" vertex="1">
          <mxGeometry x="1060" y="640" width="50" height="30" as="geometry" />
        </mxCell>
        <mxCell id="smYwAhZGvQhZCMyBOZj0-99" value="(1,N)" style="text;html=1;align=center;verticalAlign=middle;resizable=0;points=[];autosize=1;strokeColor=none;fillColor=none;fontSize=12;fontFamily=Helvetica;fontColor=default;" parent="1" vertex="1">
          <mxGeometry x="1060" y="1020" width="50" height="30" as="geometry" />
        </mxCell>
        <mxCell id="smYwAhZGvQhZCMyBOZj0-100" value="(1,N)" style="text;html=1;align=center;verticalAlign=middle;resizable=0;points=[];autosize=1;strokeColor=none;fillColor=none;fontSize=12;fontFamily=Helvetica;fontColor=default;" parent="1" vertex="1">
          <mxGeometry x="1060" y="890" width="50" height="30" as="geometry" />
        </mxCell>
        <mxCell id="Kab6qdocHkEqf8yv_JJU-1" value="maneja" style="rhombus;whiteSpace=wrap;html=1;" vertex="1" parent="1">
          <mxGeometry x="150" y="320" width="80" height="80" as="geometry" />
        </mxCell>
        <mxCell id="Kab6qdocHkEqf8yv_JJU-2" value="" style="endArrow=none;html=1;rounded=0;entryX=0;entryY=0.5;entryDx=0;entryDy=0;exitX=1;exitY=0.5;exitDx=0;exitDy=0;" edge="1" parent="1" source="Kab6qdocHkEqf8yv_JJU-27" target="Kab6qdocHkEqf8yv_JJU-1">
          <mxGeometry width="50" height="50" relative="1" as="geometry">
            <mxPoint x="10" y="360" as="sourcePoint" />
            <mxPoint x="120" y="270" as="targetPoint" />
          </mxGeometry>
        </mxCell>
        <mxCell id="Kab6qdocHkEqf8yv_JJU-3" value="" style="endArrow=none;html=1;rounded=0;entryX=1;entryY=0.5;entryDx=0;entryDy=0;exitX=0;exitY=0.5;exitDx=0;exitDy=0;" edge="1" parent="1" source="Kab6qdocHkEqf8yv_JJU-25" target="Kab6qdocHkEqf8yv_JJU-1">
          <mxGeometry width="50" height="50" relative="1" as="geometry">
            <mxPoint x="350" y="360" as="sourcePoint" />
            <mxPoint x="120" y="370" as="targetPoint" />
          </mxGeometry>
        </mxCell>
        <mxCell id="Kab6qdocHkEqf8yv_JJU-4" value="(1,N)" style="text;html=1;strokeColor=none;fillColor=none;align=center;verticalAlign=middle;whiteSpace=wrap;rounded=0;" vertex="1" parent="1">
          <mxGeometry x="250" y="330" width="60" height="30" as="geometry" />
        </mxCell>
        <mxCell id="Kab6qdocHkEqf8yv_JJU-5" value="(1,1)" style="text;html=1;strokeColor=none;fillColor=none;align=center;verticalAlign=middle;whiteSpace=wrap;rounded=0;" vertex="1" parent="1">
          <mxGeometry x="50" y="330" width="60" height="30" as="geometry" />
        </mxCell>
        <mxCell id="Kab6qdocHkEqf8yv_JJU-25" value="cocinero" style="whiteSpace=wrap;html=1;fillColor=#FF66FF;" vertex="1" parent="1">
          <mxGeometry x="360" y="330" width="120" height="60" as="geometry" />
        </mxCell>
        <mxCell id="Kab6qdocHkEqf8yv_JJU-26" value="fecha_nacimiento" style="ellipse;whiteSpace=wrap;html=1;rounded=0;strokeColor=#9673a6;align=center;verticalAlign=middle;fontFamily=Helvetica;fontSize=12;fillColor=#e1d5e7;" vertex="1" parent="1">
          <mxGeometry x="-205" y="440" width="120" height="40" as="geometry" />
        </mxCell>
        <mxCell id="Kab6qdocHkEqf8yv_JJU-27" value="pinche" style="rounded=0;whiteSpace=wrap;html=1;strokeColor=#9673a6;align=center;verticalAlign=middle;fontFamily=Helvetica;fontSize=12;fillColor=#e1d5e7;" vertex="1" parent="1">
          <mxGeometry x="-110" y="330" width="120" height="60" as="geometry" />
        </mxCell>
        <mxCell id="Kab6qdocHkEqf8yv_JJU-30" value="estante" style="shape=ext;margin=3;double=1;whiteSpace=wrap;html=1;align=center;fillColor=#CC0000;" vertex="1" parent="1">
          <mxGeometry x="1020" y="810" width="120" height="60" as="geometry" />
        </mxCell>
        <mxCell id="Kab6qdocHkEqf8yv_JJU-32" value="" style="endArrow=none;html=1;rounded=0;fontFamily=Helvetica;fontSize=12;fontColor=default;entryX=0.381;entryY=0.922;entryDx=0;entryDy=0;entryPerimeter=0;exitX=0.25;exitY=0;exitDx=0;exitDy=0;" edge="1" parent="1" source="Kab6qdocHkEqf8yv_JJU-30" target="smYwAhZGvQhZCMyBOZj0-15">
          <mxGeometry width="50" height="50" relative="1" as="geometry">
            <mxPoint x="1070" y="820" as="sourcePoint" />
            <mxPoint x="1070" y="760" as="targetPoint" />
          </mxGeometry>
        </mxCell>
      </root>
    </mxGraphModel>
  </diagram>
</mxfile>
